<svg width="200" height="200" viewBox="0 0 200 200" stroke="#5a0c25" fill="none" stroke-width="2.5" stroke-linecap="round" stroke-linejoin="round"  xmlns="http://www.w3.org/2000/svg">
    <path fill="#e84f7f" stroke="none" transform="translate(-10,-10)" d="M85.716 50.076c20.771 4.276 48.164 13.888 83.398 28.997l-13.272 73.343H45.626c-8.088-26.908-13.114-48.697-13.989-65.337-.89-16.905 2.523-28.035 10.796-34.035 8.362-6.066 22.214-7.305 43.283-2.968Z"/><path d="M85.716 50.076c20.771 4.276 48.164 13.888 83.398 28.997l-13.272 73.343H45.626c-8.088-26.908-13.114-48.697-13.989-65.337-.89-16.905 2.523-28.035 10.796-34.035 8.362-6.066 22.214-7.305 43.283-2.968Z"/>
</svg>